<?xml version="1.0" encoding="UTF-8" standalone="no"?>
<svg
   xmlns:dc="http://purl.org/dc/elements/1.1/"
   xmlns:cc="http://creativecommons.org/ns#"
   xmlns:rdf="http://www.w3.org/1999/02/22-rdf-syntax-ns#"
   xmlns:svg="http://www.w3.org/2000/svg"
   xmlns="http://www.w3.org/2000/svg"
   height="288.3309"
   width="504"
   id="svg6325"
   xml:space="preserve"
   enable-background="new 219 -116 538 333"
   viewBox="219 -116 504 288.3309"
   y="0px"
   x="0px"
   version="1.1"><metadata
     id="metadata6331"><rdf:RDF><cc:Work
         rdf:about=""><dc:format>image/svg+xml</dc:format><dc:type
           rdf:resource="http://purl.org/dc/dcmitype/StillImage" /><dc:title></dc:title></cc:Work></rdf:RDF></metadata><defs
     id="defs6329" /><path
     id="path6880"
     d="m 618.20032,52.541999 -49.45776,11.57522 -13.67981,-8.41834 -5.61222,-8.76911 -3.15688,-8.41834 v -8.06758 l 2.10458,-13.67981 -1.05229,-7.0152804 v -4.55994 l 1.40306,-8.06758 0.35076,-6.66452 1.40306,-14.0305696 2.45535,-12.27675 -2.45535,-4.20917 -1.05229,-12.978278 -0.35077,-5.261464 38.58407,-21.396621 130.83508,-2.104586 0.35076,149.425589 -81.72807,-2.10459 z"
     style="display:inline;fill:#00ff00;stroke:none;stroke-width:1px;stroke-linecap:butt;stroke-linejoin:miter;stroke-opacity:1" /><path
     style="display:inline;fill:#7f4a20;fill-opacity:1;stroke:#000000;stroke-width:2.8;stroke-linecap:round;stroke-linejoin:bevel;stroke-miterlimit:4;stroke-dasharray:none;stroke-opacity:1"
     id="path6131"
     d="m 455.5,-113.8691 c -26.4,4.7 -49.3,24.499999 -58.2,50.599999 -5.2,15 -5.4,30 -0.9,66.1999996 3.4,28.1000004 3.3,31.3000004 -1.5,41.9000004 -2.8,6.2 -11.4,15 -17.9,18.5 -2.6,1.4 -4.7,2.8 -4.7,3.2 0,1.1 13.2,8.5 21.7,12.2 8.8,3.7 20.7,7.7 30,10.1 25.5,6.4 60.7,6.2 89.7,-0.6 11.5,-2.7 31.7,-9.6 42.3,-14.3 l 7.9,-3.7 -2.9,-1.8 c -4.4,-2.7 -10.4,-8.8 -13.7,-14 -7.4,-11.7 -8.5,-24.4 -4.7,-52.2000004 1.6,-12 2.3,-21.5999996 2.3,-34.9999996 0.1,-21.5 -0.8,-25.9 -8.1,-41 -4,-8 -6.1,-10.9 -13.7,-18.5 -10.2,-10.199999 -19.6,-15.799999 -32.6,-19.499999 -8.8,-2.6 -26.6,-3.6 -35,-2.1 z" /><rect
     style="display:inline"
     id="rect6181"
     height="4"
     width="42.700001"
     y="-32.069103"
     x="665.5" /><rect
     style="display:inline"
     id="rect6183"
     height="4"
     width="42.700001"
     y="-21.669102"
     x="665.5" /><rect
     style="display:inline"
     id="rect6185"
     height="4"
     width="42.700001"
     y="-11.669101"
     x="665.5" /><rect
     style="display:inline"
     id="rect6187"
     height="4"
     width="42.700001"
     y="-1.5691022"
     x="665.5" /><rect
     style="display:inline"
     id="rect6189"
     height="4"
     width="42.700001"
     y="8.4308977"
     x="665.5" /><rect
     style="display:inline"
     id="rect6191"
     height="4"
     width="42.700001"
     y="18.930899"
     x="665.5" /><rect
     style="display:inline"
     id="rect6193"
     height="4"
     width="42.700001"
     y="28.8309"
     x="665.5" /><rect
     style="display:inline"
     id="rect6195"
     height="4"
     width="42.700001"
     y="39.130898"
     x="665.5" /><rect
     id="rect6197"
     height="4"
     width="42.700001"
     y="48.930901"
     x="665.5" /><rect
     style="display:inline"
     id="rect6199"
     height="30"
     width="42.700001"
     y="-68.069099"
     x="665.5" /><path
     id="path6878"
     d="m 234.83871,-78.578778 -0.80645,145.161287 120.16129,-1.6129 23.03171,-8.21844 7.36605,-6.31375 5.61223,-59.6299304 -1.05229,-5.2614696 -0.70153,-4.559937 -12.97828,-54.017695 -31.21802,-12.978278 -100.31858,1.403057 z"
     style="display:inline;fill:#00ff00;fill-opacity:1;stroke:none;stroke-width:1px;stroke-linecap:butt;stroke-linejoin:miter;stroke-opacity:1" /><path
     style="display:inline"
     id="path6303"
     d="m 723,75.830899 v -167.3 H 533.2 c 3.5,4.1 5.6,7.5 8.6,13.4 v 0 0 c 4.1,8.5 6.3,14 7.5,20.7 H 625 v 4 h -75.2 c 0.1,0.8 0.2,1.6 0.2,2.5 h 22 v 4 h -21.7 c 0,0.8 0.1,1.5 0.1,2.3 h 31.5 v 4 h -31.4 c 0,1.8 0,3.8 0,6 0,5.6 -0.1,10.7 -0.4,15.5 h 39.3 v 4 h -39.6 c -0.2,2.8 -0.5,5.6999996 -0.8,8.6999996 h 23.7 v 4 h -24.1 c -0.1,0.9 -0.2,1.89999996 -0.4,2.79999996 h 10.2 V 4.4308986 h -10.7 c -0.1,0.6 -0.2,1.2 -0.2,1.8 H 577 v 4.0000004 h -30 c -1,8.8 -1.3,15.8 -0.9,21.7 h 16.4 v 4 h -16 c 0.1,0.7 0.2,1.5 0.4,2.2 h 15.6 v 4 h -14.7 c 0.3,1 0.6,1.9 1,2.8 h 58.1 v 4 h -56.3 c 0.3,0.6 0.7,1.2 1,1.8 h 46.6 v 4 h -43.9 c 3.1,4 7.4,8.1 10.6,10.1 l 2.9,1.8 6.3,3.9 -6.7,3.1 -6.8,3.2 V 106.9309 c 3.6,1.3 7.1,2.5 10.8,3.6 10.9,3.2 19.4,6.6 25.9,10.7 V 75.730899 H 723 Z m -61.3,-151.8 h 50.1 v 138.6 H 661.7 Z M 577,-6.3691014 h 18.3 v 4 H 577 Z m 3.5,10.8 h -17 V 0.43089856 h 17 z m 19.7,5.9000004 H 581.7 V 6.3308986 h 18.5 z" /><path
     style="display:inline"
     id="path6305"
     d="M 379.2,106.4309 V 76.330899 c -0.8,-0.4 -1.6,-0.9 -2.4,-1.3 -8.5,-4.8 -9.8,-6.2 -9.8,-8.7 0,-2.4 1.5,-3.9 6.9,-6.8 5.9,-3.2 14,-11.6 16.5,-17 4.3,-9.5 4.7,-11.5 1.2,-40.4000004 -0.8,-6.3 -1.4,-11.9 -1.9,-17.0999996 H 286.1 v -4 h 103.2 c -2,-23 -1,-35.3 3.4,-47.9 3.1,-9 7.8,-17.4 13.6,-24.7 H 219 v 167.3 H 342.5 V 120.2309 c 5.7,-3.2 12.8,-5.8 21.5,-7.9 3.1,-0.7 8.1,-2.6 15.2,-5.9 z M 254.8,-34.069101 v -4 h 33.4 v 4 z m 30.8,2.2 v 4 h -25.9 v -4 z m -25.8,13 h 21.8 v 4 h -21.8 z m 0,12.4999996 h 33.5 v 4 h -33.5 z m 0,6.49999996 h 48.5 V 4.1308986 H 259.8 Z M 255.2,29.530899 v -4 h 47.1 v 4 z m 30.4,2.2 v 4 h -25.9 v -4 z m -25.8,12.9 h 16.8 v 4 h -16.8 z m 0,-2.1 v -4 h 25.9 v 4 z m 21,2.1 h 64 v 4 h -64 z m 10.3,-2.1 v -4 h 76.2 v 4 z m 0,-6.8 v -4 h 76.2 v 4 z M 311.9,4.1308986 V 0.13089856 h 12.9 V 4.1308986 Z m 19.9,-16.7999996 h 12.9 v 3.9999996 h -12.9 z m -3.3,0 v 3.9999996 h -68.8 v -3.9999996 z m -13.4,-8.8 h -55.4 v -4 h 55.4 z m 29.6,0 h -25.9 v -4 h 25.9 z m -92.9,-55 h 65.6 v 4 h -65.6 z m 0,6.6 h 76.8 v 4 h -76.8 z m 0,12.5 h 41.4 v 4 h -41.4 z m 0,12.6 h 11.6 v 4 h -11.6 z m 0,51.0999996 h 19.7 v 4.0000004 h -19.7 z m 0,12.8000004 h 11.6 v 4 h -11.6 z m -3.2,42.2 h -3.8 v -3.8 h 3.8 z m 0,-6.4 h -3.8 v -3.8 h 3.8 z m 0,-6.4 h -3.8 v -3.8 h 3.8 z m 0,-6.1 h -3.8 v -3.8 h 3.8 z m 0,-6.3 h -3.8 v -3.8 h 3.8 z m 0,-6.6 h -3.8 v -3.8 h 3.8 z m 0,-6.4 h -3.8 v -3.8 h 3.8 z m 0,-6.3 h -3.8 v -3.8 h 3.8 z m 0,-6.6 h -3.8 V 6.4308986 h 3.8 z m 0,-5.9000004 h -3.8 V 0.53089856 h 3.8 z m 0,-6.7 h -3.8 v -3.8 h 3.8 z m 0,-6.3 h -3.8 v -3.7999996 h 3.8 z m 0,-6.2999996 h -3.8 v -3.8 h 3.8 z m 0,-6.6 h -3.8 v -3.8 h 3.8 z m 0,-6.4 h -3.8 v -3.8 h 3.8 z m 0,-6.2 h -3.8 v -3.8 h 3.8 z m 0,-6.7 h -3.8 v -3.8 h 3.8 z m 0,-5.9 h -3.8 v -3.8 h 3.8 z m 0,-6.7 h -3.8 v -3.8 h 3.8 z m 0,-6.3 h -3.8 v -3.8 h 3.8 z m 0,-6.2 h -3.8 v -3.8 h 3.8 z m 0,-6.7 h -3.8 v -3.8 h 3.8 z m 14.8,134 h -11.6 v -4 h 11.6 z m -3.6,-6.3 v -4 h 119.5 v 4 z" /><path
     style="display:inline;fill:#aa0000;stroke:#000000;stroke-width:2.8;stroke-linecap:round;stroke-linejoin:bevel;stroke-miterlimit:4;stroke-dasharray:none;stroke-opacity:1"
     id="path6307"
     d="m 614.7,158.9309 c -0.1,-1.1 -0.3,-2.1 -0.5,-3.2 -0.2,-1.1 -0.4,-2.2 -0.7,-3.2 -0.3,-1.1 -0.6,-2.1 -0.9,-3.2 -0.5,-1.5 -1,-3 -1.5,-4.4 -0.5,-1.4 -1.1,-2.6 -1.7,-3.7 -1.1,-2.1 -2.5,-4.1 -4,-5.9 -0.8,-0.9 -1.6,-1.8 -2.5,-2.7 -0.6,-0.6 -1.2,-1.1 -1.9,-1.7 -0.3,-0.3 -0.7,-0.6 -1,-0.8 -0.7,-0.5 -1.4,-1.1 -2.1,-1.6 -0.2,-0.1 -0.4,-0.3 -0.5,-0.4 -6.5,-4.5 -15.3,-8.2 -27.1,-11.7 -3.3,-1 -6.5,-2 -9.7,-3.2 -9.6,-3.4 -19,-7.8 -30.3,-14.000001 l -9,-4.9 -7.8,1.6 c -2.1,0.4 -4.2,0.8 -6.2,1.2 -0.7,0.1 -1.3,0.2 -2,0.4 -1.4,0.2 -2.7,0.5 -4.1,0.7 -0.8,0.1 -1.6,0.2 -2.4,0.4 -1.2,0.2 -2.4,0.4 -3.6,0.5 -0.8,0.1 -1.7,0.2 -2.5,0.3 -1.1,0.1 -2.2,0.3 -3.3,0.4 -0.9,0.1 -1.7,0.200001 -2.6,0.300001 -1.1,0.1 -2.1,0.2 -3.2,0.3 -0.9,0.1 -1.7,0.1 -2.6,0.2 -1,0.1 -2.1,0.2 -3.1,0.2 -0.9,0 -1.7,0.1 -2.6,0.1 -1,0 -2,0.1 -3,0.1 -0.9,0 -1.7,0 -2.6,0 -0.7,0 -1.5,0 -2.2,0 -0.3,0 -0.5,0 -0.8,0 -1,0 -2.1,0 -3.1,0 -0.9,0 -1.8,0 -2.7,-0.1 -1,0 -2.1,-0.1 -3.1,-0.1 -0.9,0 -1.8,-0.1 -2.7,-0.1 -1.1,-0.1 -2.1,-0.2 -3.2,-0.3 -0.9,-0.1 -1.8,-0.1 -2.7,-0.2 -1.1,-0.1 -2.2,-0.2 -3.3,-0.400001 -0.9,-0.1 -1.8,-0.2 -2.7,-0.3 -1.1,-0.1 -2.3,-0.3 -3.4,-0.5 -0.9,-0.1 -1.7,-0.2 -2.6,-0.4 -1.2,-0.2 -2.4,-0.4 -3.7,-0.6 -0.8,-0.1 -1.7,-0.3 -2.5,-0.4 -1.4,-0.2 -2.8,-0.5 -4.2,-0.8 -0.7,-0.1 -1.4,-0.3 -2.1,-0.4 -2.1,-0.4 -4.3,-0.9 -6.5,-1.4 -0.1,0 -0.2,0 -0.3,0 -0.1,0 -0.1,0 -0.2,0 -0.1,0 -0.2,0 -0.3,0 -0.1,0 -0.2,0 -0.3,0.1 -0.1,0 -0.2,0.1 -0.4,0.1 -0.1,0 -0.2,0.1 -0.4,0.1 -0.1,0 -0.3,0.1 -0.4,0.1 -0.1,0 -0.3,0.1 -0.4,0.2 -0.2,0.1 -0.3,0.1 -0.5,0.2 -0.2,0.1 -0.3,0.1 -0.5,0.2 -0.2,0.1 -0.4,0.2 -0.6,0.2 -0.2,0.1 -0.4,0.2 -0.6,0.2 -0.2,0.1 -0.4,0.2 -0.7,0.3 -0.2,0.1 -0.4,0.2 -0.7,0.3 -0.2,0.1 -0.5,0.2 -0.8,0.3 -0.2,0.1 -0.5,0.2 -0.7,0.3 -0.3,0.1 -0.6,0.2 -0.8,0.4 -0.3,0.1 -0.5,0.2 -0.8,0.3 -0.3,0.1 -0.6,0.3 -0.9,0.4 -0.3,0.1 -0.5,0.2 -0.8,0.4 -0.3,0.1 -0.7,0.3 -1,0.5 -0.3,0.1 -0.6,0.3 -0.9,0.400001 -0.3,0.2 -0.7,0.3 -1.1,0.5 -0.3,0.1 -0.6,0.3 -0.9,0.4 -0.4,0.2 -0.8,0.4 -1.2,0.6 -0.3,0.1 -0.6,0.3 -0.9,0.4 -0.4,0.2 -0.8,0.4 -1.3,0.6 -0.3,0.2 -0.6,0.3 -1,0.5 -0.5,0.2 -1,0.5 -1.5,0.7 -0.3,0.1 -0.5,0.3 -0.8,0.4 -0.8,0.4 -1.6,0.8 -2.4,1.2 -2.8,1.4 -5.3,2.6 -7.8,3.8 -1.6,0.8 -3.1,1.5 -4.6,2.2 -1,0.5 -1.9,0.9 -2.9,1.3 -1.1,0.5 -2.1,1 -3.1,1.4 -1.2,0.5 -2.4,1 -3.4,1.4 -1.1,0.4 -2.1,0.8 -3,1.2 -0.9,0.3 -1.8,0.6 -2.6,0.9 -0.8,0.3 -1.5,0.4 -2.2,0.6 -4.4,1 -8.3,2.2 -11.9,3.6 -0.7,0.3 -1.4,0.5 -2.1,0.8 -1.4,0.6 -2.7,1.1 -3.9,1.8 -1.6,0.8 -3.1,1.7 -4.6,2.6 -0.2,0.1 -0.4,0.2 -0.6,0.4 -1.1,0.7 -2,1.4 -3,2.2 -1.4,1.1 -2.7,2.4 -3.8,3.7 -6.2,6.9 -8.8,16.2 -8.8,28.7 v 9 h 90.8 c 50,0 115,-0.3 144.4,-0.7 l 53.6,-0.6 v -4.7 c 0.6,-1.9 0.4,-3.9 0.1,-6 z" /></svg>
