<?xml version="1.0" encoding="UTF-8" standalone="no"?>
<svg
   xmlns:dc="http://purl.org/dc/elements/1.1/"
   xmlns:cc="http://creativecommons.org/ns#"
   xmlns:rdf="http://www.w3.org/1999/02/22-rdf-syntax-ns#"
   xmlns:svg="http://www.w3.org/2000/svg"
   xmlns="http://www.w3.org/2000/svg"
   height="100%"
   width="100%"
   x="0"
   y="0"
   version="1.0"
   _SVGFile__filename="oldscale/mimetypes/source_mono.svg"
   viewBox="0 0 53.868999 53.509998"
   id="svg1">
  <defs
     id="defs9" />
  <path
     d="m 3.5625,1.5625 c -1.108,0 -2,0.892 -2,2 v 46.384 c 0,1.109 0.892,2.001 2,2.001 h 46.744 c 1.108,0 2,-0.892 2,-2 V 3.5635 c 0,-1.1085 -0.892,-2.0005 -2,-2.0005 H 3.5625 Z"
     style="display:inline;fill:#ffffff;fill-rule:evenodd;stroke:#000000;stroke-width:3.125;stroke-linecap:round;stroke-linejoin:round"
     id="rect812" />
  <path
     d="m 31.4999,37.336 0.645,-4.816 h -1.379 c -0.608,0 -1.056,-0.173 -1.342,-0.519 -0.287,-0.358 -0.43,-0.782 -0.43,-1.271 0,-0.49 0.143,-0.902 0.43,-1.236 0.286,-0.346 0.734,-0.519 1.342,-0.519 h 1.862 l 0.591,-4.404 h -1.396 c -0.597,0 -1.039,-0.173 -1.325,-0.52 -0.287,-0.358 -0.43,-0.781 -0.43,-1.271 0,-0.501 0.143,-0.919 0.43,-1.253 0.286,-0.346 0.728,-0.519 1.325,-0.519 h 1.933 l 0.788,-5.747 c 0.084,-0.609 0.275,-1.08 0.573,-1.415 0.31,-0.334 0.8,-0.501 1.468,-0.501 0.477,0 0.871,0.137 1.182,0.412 0.31,0.262 0.465,0.627 0.465,1.092 0,0.203 -0.048,0.645 -0.143,1.325 l -0.663,4.834 h 3.313 l 0.77,-5.747 c 0.083,-0.609 0.274,-1.08 0.572,-1.415 0.311,-0.334 0.8,-0.501 1.469,-0.501 0.477,0 0.871,0.137 1.181,0.412 0.311,0.274 0.466,0.638 0.466,1.092 0,0.203 -0.048,0.645 -0.144,1.325 l -0.662,4.834 h 1.396 c 0.621,0 1.069,0.173 1.343,0.519 0.287,0.334 0.43,0.752 0.43,1.253 0,0.49 -0.143,0.913 -0.43,1.271 -0.286,0.347 -0.734,0.52 -1.343,0.52 h -1.861 l -0.591,4.404 h 1.396 c 0.621,0 1.068,0.167 1.343,0.501 0.274,0.334 0.412,0.752 0.412,1.254 0,0.501 -0.143,0.925 -0.43,1.271 -0.274,0.346 -0.716,0.519 -1.325,0.519 h -1.951 l -0.77,5.729 c -0.084,0.597 -0.275,1.062 -0.573,1.397 -0.298,0.334 -0.788,0.501 -1.468,0.501 -0.478,0 -0.877,-0.131 -1.2,-0.394 -0.31,-0.275 -0.465,-0.645 -0.465,-1.11 0,-0.239 0.053,-0.674 0.161,-1.307 l 0.662,-4.816 h -3.312 l -0.77,5.729 c -0.083,0.609 -0.28,1.08 -0.591,1.414 -0.298,0.323 -0.787,0.484 -1.468,0.484 -0.465,0 -0.859,-0.131 -1.181,-0.394 -0.311,-0.275 -0.466,-0.645 -0.466,-1.11 0,-0.239 0.054,-0.674 0.161,-1.307 z m 8.164,-8.361 0.591,-4.404 h -3.33 l -0.591,4.404 z M 6.3099,26.737 c 0,-1.969 0.3043,-3.802 0.913,-5.496 0.621,-1.707 1.498,-3.169 2.632,-4.387 1.134,-1.229 2.5,-2.178 4.1,-2.846 1.611,-0.681 3.378,-1.021 5.299,-1.021 2.137,0 3.981,0.334 5.533,1.003 1.563,0.668 2.345,1.724 2.345,3.169 0,0.752 -0.245,1.42 -0.734,2.005 -0.478,0.573 -1.086,0.859 -1.826,0.859 -0.37,0 -0.973,-0.155 -1.809,-0.465 -0.823,-0.311 -1.426,-0.526 -1.808,-0.645 -0.382,-0.119 -0.901,-0.179 -1.557,-0.179 -1.516,0 -2.782,0.37 -3.796,1.11 -1.003,0.728 -1.743,1.707 -2.22,2.936 -0.466,1.23 -0.698,2.549 -0.698,3.957 0,2.208 0.543,4.064 1.629,5.568 1.086,1.492 2.608,2.238 4.565,2.238 1.039,0 1.856,-0.078 2.453,-0.233 0.597,-0.155 1.218,-0.364 1.862,-0.626 0.645,-0.263 1.152,-0.394 1.522,-0.394 0.716,0 1.271,0.167 1.665,0.501 0.394,0.322 0.656,0.698 0.788,1.128 0.131,0.43 0.197,0.818 0.197,1.164 0,1.014 -0.43,1.856 -1.289,2.524 -0.86,0.669 -1.928,1.152 -3.205,1.45 -1.277,0.311 -2.519,0.466 -3.724,0.466 -2.662,0 -4.965,-0.609 -6.911,-1.826 -1.934,-1.23 -3.408,-2.889 -4.422,-4.978 -1.0027,-2.1 -1.504,-4.428 -1.504,-6.982 z"
     style="display:inline;fill:#000000"
     id="path841" />
  <metadata
     id="metadata6">
    <rdf:RDF>
      <cc:Work>
        <dc:format>image/svg+xml</dc:format>
        <dc:type
           rdf:resource="http://purl.org/dc/dcmitype/StillImage" />
        <cc:license
           rdf:resource="http://creativecommons.org/licenses/publicdomain/" />
        <dc:publisher>
          <cc:Agent
             rdf:about="http://openclipart.org/">
            <dc:title>Openclipart</dc:title>
          </cc:Agent>
        </dc:publisher>
        <dc:title></dc:title>
      </cc:Work>
      <cc:License
         rdf:about="http://creativecommons.org/licenses/publicdomain/">
        <cc:permits
           rdf:resource="http://creativecommons.org/ns#Reproduction" />
        <cc:permits
           rdf:resource="http://creativecommons.org/ns#Distribution" />
        <cc:permits
           rdf:resource="http://creativecommons.org/ns#DerivativeWorks" />
      </cc:License>
    </rdf:RDF>
  </metadata>
</svg>
